HIERARCHY
ROOT Hips
{
	OFFSET 0.000000 0.000000 0.000000
	CHANNELS 6 Xposition Yposition Zposition Yrotation Xrotation Zrotation
	JOINT Chest
	{
		OFFSET 0.000000 -0.009281 11.569106
		CHANNELS 3 Yrotation Xrotation Zrotation
		JOINT Chest2
		{
			OFFSET -0.000000 0.016865 9.269641
			CHANNELS 3 Yrotation Xrotation Zrotation
			JOINT Chest3
			{
				OFFSET -0.000000 0.000001 8.374491
				CHANNELS 3 Yrotation Xrotation Zrotation
				JOINT Chest4
				{
					OFFSET -0.000000 0.000001 8.374493
					CHANNELS 3 Yrotation Xrotation Zrotation
					JOINT Neck
					{
						OFFSET -0.000000 0.000002 12.152554
						CHANNELS 3 Yrotation Xrotation Zrotation
						JOINT Head
						{
							OFFSET -0.000000 0.040101 7.802319
							CHANNELS 3 Yrotation Xrotation Zrotation
							End Site
							{
								OFFSET -0.000000 0.020947 14.853096
							}
						}
					}
					JOINT RightCollar
					{
						OFFSET 2.894404 0.000001 6.791374
						CHANNELS 3 Yrotation Xrotation Zrotation
						JOINT RightShoulder
						{
							OFFSET 13.574684 0.000001 0.000000
							CHANNELS 3 Yrotation Xrotation Zrotation
							JOINT RightElbow
							{
								OFFSET 23.923903 0.000002 0.000000
								CHANNELS 3 Yrotation Xrotation Zrotation
								JOINT RightWrist
								{
									OFFSET 19.846718 0.012767 0.000000
									CHANNELS 3 Yrotation Xrotation Zrotation
									End Site
									{
										OFFSET 14.973145 0.000001 0.000000
									}
								}
							}
						}
					}
					JOINT LeftCollar
					{
						OFFSET -2.894404 0.000001 6.791374
						CHANNELS 3 Yrotation Xrotation Zrotation
						JOINT LeftShoulder
						{
							OFFSET -13.574684 -0.000001 0.000000
							CHANNELS 3 Yrotation Xrotation Zrotation
							JOINT LeftElbow
							{
								OFFSET -23.923903 -0.000002 0.000000
								CHANNELS 3 Yrotation Xrotation Zrotation
								JOINT LeftWrist
								{
									OFFSET -19.846718 0.012763 0.000000
									CHANNELS 3 Yrotation Xrotation Zrotation
									End Site
									{
										OFFSET -14.973145 -0.000001 0.000000
									}
								}
							}
						}
					}
				}
			}
		}
	}
	JOINT RightHip
	{
		OFFSET 9.469263 0.004643 0.045487
		CHANNELS 3 Yrotation Xrotation Zrotation
		JOINT RightKnee
		{
			OFFSET 0.000000 0.002661 -40.478676
			CHANNELS 3 Yrotation Xrotation Zrotation
			JOINT RightAnkle
			{
				OFFSET 0.000000 0.049106 -35.224068
				CHANNELS 3 Yrotation Xrotation Zrotation
				JOINT RightToe
				{
					OFFSET -0.000001 12.539529 -6.151390
					CHANNELS 3 Yrotation Xrotation Zrotation
					End Site
					{
						OFFSET -0.000001 5.044994 -1.291870
					}
				}
			}
		}
	}
	JOINT LeftHip
	{
		OFFSET -9.469263 0.004641 0.045487
		CHANNELS 3 Yrotation Xrotation Zrotation
		JOINT LeftKnee
		{
			OFFSET 0.000000 0.002661 -40.478676
			CHANNELS 3 Yrotation Xrotation Zrotation
			JOINT LeftAnkle
			{
				OFFSET 0.000000 0.049106 -35.224068
				CHANNELS 3 Yrotation Xrotation Zrotation
				JOINT LeftToe
				{
					OFFSET -0.000001 12.539529 -6.151390
					CHANNELS 3 Yrotation Xrotation Zrotation
					End Site
					{
						OFFSET -0.000001 5.044994 -1.291870
					}
				}
			}
		}
	}
}
MOTION
Frames: 16
Frame Time: 0.016667
13.234868 5.549612 82.856842 -4.929366 -1.886953 -108.330140 10.082903 -0.251101 -4.769691 4.490727 -0.212252 -2.129013 4.490725 -0.212251 -2.129017 3.367355 -0.174845 -1.595299 -6.431756 -17.031867 18.199442 -5.712971 4.141162 31.416504 6.720392 5.646436 -6.392954 65.328048 38.233907 19.303286 50.415156 38.044164 62.885716 -3.782402 38.303417 14.925013 -6.773862 0.616055 -10.973526 -75.841430 45.045176 -66.604979 -47.579798 40.810534 -61.820957 47.659708 48.168611 7.200468 -2.888985 -11.088707 2.492489 -0.362372 -1.209127 0.811634 2.343747 6.790855 -2.023650 -0.064804 -0.000435 -0.015534 -3.799911 -11.341720 2.770864 0.237139 0.177228 4.165301 0.559896 5.227417 -0.714796 -0.039569 -0.059670 0.019834 
13.232875 5.543885 82.856285 -4.923113 -1.894082 -108.335003 10.075478 -0.230335 -4.764405 4.487068 -0.202472 -2.126068 4.487071 -0.202471 -2.126068 3.364644 -0.167477 -1.593165 -6.435699 -16.999900 18.199770 -5.713759 4.200325 31.418563 6.751756 5.467444 -6.385951 65.174956 37.918570 18.751811 50.704848 37.237088 63.532125 -2.356184 35.697468 14.253588 -6.775814 0.546535 -10.963523 -75.847297 45.024071 -66.586954 -47.587663 40.834392 -61.845239 47.617880 48.030642 7.134159 -2.877716 -11.085458 2.483614 -0.364244 -1.206197 0.827894 2.356170 6.794995 -2.028642 -0.065194 -0.002484 -0.016423 -3.787292 -11.340123 2.787815 0.233044 0.179744 4.158101 0.570538 5.233048 -0.717072 -0.039273 -0.060907 0.019595 
13.234571 5.540909 82.856033 -4.921635 -1.899296 -108.314369 10.067742 -0.206684 -4.767727 4.483051 -0.191372 -2.127538 4.483053 -0.191374 -2.127538 3.361668 -0.159150 -1.594350 -6.426937 -16.975998 18.202862 -5.692145 4.241860 31.429447 6.775670 5.408826 -6.390880 65.141509 37.534154 18.246422 51.186428 36.467586 64.596514 0.616252 33.614516 14.610027 -6.765351 0.472091 -10.963598 -75.953664 45.039196 -66.643050 -47.617080 40.820281 -61.861194 47.709401 47.891989 7.071393 -2.868285 -11.093129 2.473320 -0.365666 -1.201008 0.831601 2.366323 6.797410 -2.037121 -0.062182 -0.000610 -0.017217 -3.772020 -11.345938 2.814697 0.222713 0.188450 4.126183 0.580370 5.233330 -0.730386 -0.034865 -0.060883 0.019900 
13.239499 5.541153 82.857307 -4.922261 -1.896520 -108.263505 10.061699 -0.171729 -4.779279 4.479226 -0.175661 -2.133969 4.479228 -0.175661 -2.133966 3.358854 -0.147397 -1.599289 -6.406278 -16.963762 18.208953 -5.650235 4.259309 31.449005 6.768840 5.350564 -6.398146 65.339898 37.398790 17.962472 51.812603 35.714830 65.767570 4.396850 32.386804 15.442228 -6.759766 0.401179 -10.957081 -76.076635 45.040863 -66.703648 -47.660418 40.794743 -61.879315 47.887781 47.754664 7.005439 -2.862945 -11.100383 2.477287 -0.367701 -1.208139 0.806583 2.372257 6.804380 -2.055506 -0.055182 0.005623 -0.017294 -3.761871 -11.350831 2.826401 0.213153 0.198379 4.091363 0.584372 5.223856 -0.757360 -0.025557 -0.055690 0.020376 
13.245544 5.546113 82.859787 -4.921979 -1.889365 -108.193502 10.057902 -0.124836 -4.795232 4.476824 -0.155226 -2.143161 4.476824 -0.155226 -2.143160 3.357123 -0.132131 -1.606330 -6.376183 -16.962090 18.217257 -5.592550 4.255289 31.474984 6.749502 5.295890 -6.376913 65.626329 37.590458 17.901427 52.540052 35.051284 66.793226 8.281926 31.653347 16.686755 -6.759724 0.329455 -10.937514 -76.148283 45.003768 -66.733216 -47.715124 40.800767 -61.929913 48.076144 47.595282 6.942280 -2.864217 -11.102052 2.493529 -0.361536 -1.227097 0.760599 2.369168 6.811975 -2.085056 -0.043933 0.016040 -0.017355 -3.754730 -11.346466 2.831999 0.202601 0.197759 4.051769 0.586838 5.213932 -0.785487 -0.014184 -0.048853 0.020789 
13.253632 5.555333 82.862610 -4.922936 -1.879205 -108.109259 10.052631 -0.072954 -4.808694 4.474051 -0.132262 -2.151595 4.474051 -0.132263 -2.151593 3.355122 -0.114958 -1.612829 -6.336512 -16.963787 18.220078 -5.519832 4.243763 31.493866 6.709937 5.264047 -6.365147 65.934965 37.902482 17.991871 53.292268 34.523570 67.692222 11.775218 31.347471 18.213137 -6.760569 0.263028 -10.912831 -76.170297 44.927536 -66.729056 -47.757075 40.820096 -61.980640 48.236022 47.493659 6.905344 -2.872683 -11.103226 2.506768 -0.347199 -1.253082 0.707042 2.359330 6.822210 -2.116865 -0.030815 0.026651 -0.018107 -3.751560 -11.340021 2.826120 0.193217 0.193842 4.021986 0.586052 5.201663 -0.820676 -0.001363 -0.041119 0.021455 
13.263642 5.567750 82.865143 -4.924306 -1.869350 -108.019920 10.042810 -0.019915 -4.814115 4.469757 -0.108353 -2.156540 4.469761 -0.108353 -2.156541 3.351987 -0.097045 -1.616713 -6.286123 -16.965396 18.212720 -5.430788 4.231366 31.497701 6.655388 5.231671 -6.360578 66.184820 38.233282 18.157529 54.015274 34.219866 68.487249 14.650401 31.598699 19.758245 -6.758714 0.198529 -10.899003 -76.172715 44.841186 -66.714699 -47.784208 40.824157 -62.013104 48.357671 47.429640 6.875495 -2.883355 -11.102917 2.512218 -0.333270 -1.285367 0.659586 2.348665 6.834859 -2.138734 -0.016979 0.036552 -0.018695 -3.750929 -11.334540 2.806145 0.186723 0.188974 4.004137 0.582786 5.190107 -0.863165 0.011348 -0.034877 0.021998 
13.275290 5.581487 82.867653 -4.933384 -1.865797 -107.934139 10.028997 0.023550 -4.814909 4.464139 -0.088411 -2.159377 4.464139 -0.088411 -2.159378 3.347842 -0.082089 -1.618989 -6.233684 -16.960188 18.199112 -5.338612 4.231713 31.491315 6.605807 5.172973 -6.334685 66.363136 38.542665 18.420190 54.690930 34.230080 69.149935 16.743572 32.176465 21.297454 -6.754880 0.151066 -10.872006 -76.166943 44.735909 -66.706209 -47.792982 40.810510 -62.019996 48.412364 47.312618 6.786169 -2.885904 -11.111505 2.515764 -0.327934 -1.320702 0.620615 2.338523 6.848498 -2.186186 -0.003951 0.045892 -0.019445 -3.750759 -11.340222 2.781298 0.184372 0.186519 3.988462 0.578748 5.177268 -0.899073 0.021964 -0.029590 0.022926 
13.287593 5.593867 82.870361 -4.952062 -1.869708 -107.854411 10.005706 0.048993 -4.807840 4.454357 -0.076456 -2.157956 4.454357 -0.076455 -2.157955 3.340548 -0.073075 -1.618011 -6.178627 -16.938454 18.178443 -5.240589 4.262512 31.474324 6.575036 5.124256 -6.312048 66.516870 38.782729 18.807115 55.229091 34.601803 69.660287 17.759971 32.904932 22.761563 -6.734657 0.111155 -10.859222 -76.149103 44.635566 -66.704577 -47.798456 40.765322 -62.030152 48.502714 47.230758 6.733192 -2.890457 -11.127027 2.514388 -0.316945 -1.361751 0.599491 2.323302 6.863929 -2.212543 0.009232 0.053997 -0.018750 -3.751433 -11.356859 2.755595 0.189443 0.180700 3.970202 0.574348 5.168147 -0.916762 0.028266 -0.026059 0.022885 
13.297959 5.605274 82.873367 -4.974011 -1.878167 -107.786081 9.979695 0.064853 -4.797980 4.442941 -0.069036 -2.155167 4.442943 -0.069035 -2.155171 3.332013 -0.067451 -1.615977 -6.132655 -16.907266 18.159091 -5.156793 4.312293 31.457505 6.527249 5.136576 -6.317078 66.644369 38.936525 19.211350 55.466406 35.235382 69.875315 17.693661 33.979730 24.089611 -6.710108 0.078328 -10.869387 -76.093847 44.561561 -66.681771 -47.849669 40.716721 -62.084794 48.650331 47.204728 6.735602 -2.888329 -11.143123 2.505764 -0.305142 -1.407263 0.586515 2.304460 6.877805 -2.261373 0.018608 0.062397 -0.018431 -3.748128 -11.376578 2.738744 0.191981 0.172336 3.946321 0.571216 5.161016 -0.931800 0.032597 -0.023756 0.023140 
13.304747 5.613944 82.876869 -4.995511 -1.892407 -107.730129 9.951027 0.068892 -4.786431 4.430588 -0.066907 -2.151751 4.430586 -0.066905 -2.151757 3.322755 -0.065783 -1.613429 -6.092071 -16.868098 18.137289 -5.081952 4.378048 31.435061 6.496247 5.143528 -6.294007 66.737983 39.103041 19.613197 55.571526 36.037871 69.831916 16.836099 35.457575 25.261504 -6.688157 0.075657 -10.879814 -76.013407 44.485019 -66.637661 -47.884414 40.671246 -62.139313 48.741972 47.135456 6.676242 -2.886295 -11.146923 2.495936 -0.287603 -1.469902 0.576022 2.285479 6.894404 -2.291316 0.025672 0.070726 -0.017757 -3.739184 -11.392703 2.721116 0.193907 0.154923 3.925330 0.570765 5.161112 -0.938308 0.033124 -0.024223 0.022929 
13.308602 5.620691 82.880318 -5.010517 -1.908138 -107.684558 9.924549 0.081145 -4.778894 4.419713 -0.061117 -2.150021 4.419714 -0.061116 -2.150020 3.314617 -0.061393 -1.612172 -6.063057 -16.837736 18.119648 -5.028615 4.429621 31.415448 6.476880 5.136433 -6.253334 66.808218 39.269961 19.987031 55.626099 36.956043 69.612004 15.802659 37.126125 26.268503 -6.689181 0.063608 -10.872635 -75.941779 44.421430 -66.606762 -47.819766 40.606062 -62.088510 48.719780 47.118022 6.566890 -2.881625 -11.143660 2.479933 -0.267469 -1.528469 0.578936 2.262981 6.907302 -2.300383 0.031080 0.077109 -0.017167 -3.724303 -11.401288 2.692351 0.191178 0.135057 3.919406 0.575368 5.164055 -0.941808 0.030063 -0.026306 0.022145 
13.310218 5.626508 82.884033 -5.022913 -1.927957 -107.656158 9.895746 0.091558 -4.765390 4.408232 -0.055883 -2.145474 4.408234 -0.055885 -2.145477 3.306026 -0.057394 -1.608800 -6.045885 -16.809842 18.099134 -4.998234 4.479463 31.386177 6.472032 5.172575 -6.260078 66.901990 39.382065 20.315467 55.595363 37.903155 69.233045 14.800299 38.566899 27.004372 -6.682637 0.044021 -10.874728 -75.871599 44.391831 -66.578785 -47.720486 40.528109 -61.973776 48.651308 47.107442 6.437730 -2.873257 -11.133963 2.459531 -0.247072 -1.589304 0.604587 2.241725 6.916061 -2.337468 0.032094 0.084394 -0.017504 -3.708820 -11.410278 2.664533 0.192685 0.119232 3.938465 0.575710 5.164397 -0.956148 0.027528 -0.027446 0.021466 
13.311250 5.626743 82.888573 -5.037608 -1.946794 -107.650106 9.867790 0.102742 -4.748488 4.395884 -0.049987 -2.139073 4.395884 -0.049987 -2.139074 3.296788 -0.052883 -1.604042 -6.041076 -16.792281 18.079980 -4.992006 4.512827 31.354130 6.492783 5.201216 -6.248903 66.958066 39.437758 20.480170 55.338182 38.633220 68.683091 13.249149 40.066566 27.421937 -6.668229 0.007866 -10.873458 -75.755786 44.374189 -66.504309 -47.716791 40.466709 -61.933410 48.678311 47.075645 6.420864 -2.867227 -11.125292 2.453216 -0.232309 -1.644316 0.620483 2.226372 6.919714 -2.334356 0.031300 0.089859 -0.016576 -3.695405 -11.426908 2.639992 0.194216 0.111429 3.968193 0.572219 5.159940 -0.959800 0.025767 -0.025681 0.021289 
13.312429 5.623236 82.892868 -5.049038 -1.960980 -107.664928 9.840113 0.114633 -4.727918 4.383308 -0.043770 -2.130318 4.383312 -0.043770 -2.130322 3.287378 -0.048111 -1.597522 -6.046678 -16.785936 18.064278 -5.005882 4.527441 31.323743 6.527912 5.245684 -6.224146 66.817091 39.382099 20.298813 54.900862 39.028319 67.981843 10.686327 41.877666 27.420413 -6.650217 -0.022649 -10.869501 -75.631340 44.352626 -66.403167 -47.757246 40.412614 -61.953470 48.878739 47.049915 6.573771 -2.859075 -11.112728 2.462540 -0.226398 -1.695591 0.622561 2.214937 6.925151 -2.329400 0.028592 0.090481 -0.016149 -3.684041 -11.441939 2.634684 0.191479 0.105211 3.984462 0.569068 5.155683 -0.953431 0.023958 -0.022507 0.021291 
13.312096 5.616883 82.896393 -5.062497 -1.971831 -107.691640 9.808888 0.126520 -4.699886 4.368691 -0.037697 -2.117996 4.368693 -0.037696 -2.117997 3.276437 -0.043417 -1.588321 -6.048033 -16.790949 18.044219 -5.015662 4.520946 31.285719 6.574700 5.255969 -6.207710 66.515162 39.188852 19.898723 54.552311 39.274513 67.375445 7.080810 43.471709 26.301841 -6.636010 -0.035179 -10.874669 -75.572929 44.322334 -66.337140 -47.826310 40.344599 -62.016834 49.174504 47.019821 6.759798 -2.857385 -11.098416 2.485292 -0.220212 -1.746621 0.623811 2.204377 6.933581 -2.316753 0.025616 0.086791 -0.016255 -3.676499 -11.456783 2.635182 0.188656 0.095685 3.999525 0.566251 5.155157 -0.942190 0.020814 -0.020394 0.021198 
